/* XPM */
static char * bg5_xpm[] = {
"32 32 2 1",
" 	c #2E3C3A",
".	c #3D5A61",
"                                ",
"                                ",
"                                ",
"                                ",
"                                ",
"                                ",
"                                ",
"                                ",
"                                ",
"                ......          ",
"               ........         ",
"              ..........        ",
"              ..........        ",
"              ..........        ",
"               ........         ",
"                                ",
"          .....                 ",
"        ........                ",
"       ..........               ",
"       ..........               ",
"       ..........               ",
"        ........                ",
"                                ",
"                                ",
"                                ",
"                                ",
"                                ",
"                                ",
"                                ",
"                                ",
"                                ",
"                                "};
