/* XPM */
static char * diary_xpm[] = {
"32 32 8 1",
" 	c #2E3C3A",
".	c #42428F",
"+	c #4C63E0",
"@	c #FAE898",
"#	c #000000",
"$	c #2F1D5A",
"%	c #70162B",
"&	c #A84111",
"                                ",
"                                ",
"                                ",
"                                ",
"                                ",
"         .++++++++++            ",
"        +.++++++++++            ",
"        +.++++++++++@           ",
"        +.++++++++++@@          ",
"        +.+#######++@@@.        ",
"        +.+####+##++@@@.        ",
"        +.++++++++++@@@.        ",
"        +.++++++++++@@@.        ",
"        +.++++++++++@@@.        ",
"        +.+###+###++@@@.        ",
"        +.++++++++++@@@.        ",
"        +.+####+##++@@@.        ",
"        +.++++++++++@@@.        ",
"        +.++++++++++@@@.        ",
"        +.++++++++++@@@.        ",
"        +.++++++++++@@@.        ",
"        +.$$$$$$%%%%@@@.        ",
"        +$%&&&&&&&&&&@@.        ",
"        .$%&&&&&&&&&&&@.        ",
"         .%%%&&&&&&&&&&.        ",
"          ..............        ",
"                                ",
"                                ",
"                                ",
"                                ",
"                                ",
"                                "};
