/* XPM */
static char * door_o_xpm[] = {
"32 32 7 1",
" 	c #346769",
".	c #999F8E",
"+	c #12274D",
"@	c #AF8363",
"#	c #E2A14D",
"$	c #EAD363",
"%	c #2E3C3A",
" .... .................... .... ",
" .... ......................... ",
" ......................... .... ",
" .... .................... .... ",
"+    +                    +    +",
"+                         +    +",
"+    +@@@@@@@@@@@@@@@@@@@ +    +",
"+    @@@################@@@    +",
"++ ++@########$$$$$#######@++ ++",
"+   @@##$$$$$$$$$$$$$$$$$#@@   +",
"+   @##$$$$$$$$$$$$$$$$$$##@   +",
"+   @##$$$$$$$$$$$$$$$$$$$#@   +",
"+   @##$$$$$$$$$$$$$$$$$$$#@   +",
"+   @#$$$$$$$$$$$$$$$$$$$$#@   +",
"+   @#$$$$$$$$$$$$$$$$$$$$#@   +",
"+   @#$$$$$$$$$$$$$$$$$$$$#@   +",
"+   @#$$$$$$$$$$$$$$$$$$$$#@   +",
"+   @#$$$$$$$$$$$$$$$$$$$$#@   +",
"+   @#$$$$$$$$$$$$$$$$$$$$#@   +",
"+   @#$$$$$$$$$$$$$$$$$$$$#@   +",
"+   @#$$$$$$$$$$$$$$$$$$$$#@   +",
"+   @#$$$$$$$$$$$$$$$$$$$$#@   +",
"+   @#$$$$$##########$$$$$#@   +",
"+   @#$$###############$$$#@   +",
"+   @#$$################$$#@   +",
"+   @#$#################$$#@   +",
"+   @#$##################$#@   +",
"+   @####@@@@@@@@@@@@@@####@   +",
"+   @@##@@@@@@@@@@@@@@@@##@@   +",
"%   @@@@@@@@@@@@@@@@@@@@@@@@   %",
"%%%%%%@@@@@@@@@@@@@@@@@@@@%%%%%%",
"%%%%%%%%%@@@@@@@@@@@@@%%%%%%%%%%"};
