/* XPM */
static char * door_c_xpm[] = {
"32 32 9 1",
" 	c #346769",
".	c #999F8E",
"+	c #12274D",
"@	c #AF8363",
"#	c #E2A14D",
"$	c #E2BC4D",
"%	c #472138",
"&	c #8B6D40",
"*	c #2E3C3A",
" .... .................... .... ",
" .... ......................... ",
" ......................... .... ",
" .... .................... .... ",
"+    +                    +    +",
"+                         +    +",
"+    +                    +    +",
"+    @@@@@@@@@@@@@@@@@@@@@+    +",
"++ ++@####################@++ ++",
"+    @#....@@......#@....#@    +",
"+    @#     +            #@    +",
"+    @#     +            #@    +",
"+    @#                  #@    +",
"+    @#     +            #@    +",
"+    @#   ............   #@    +",
"+    @#   .          .   #@    +",
"+    @#   +              #@    +",
"+    @#   +    $$$       #@    +",
"+    @#   +   $%%%$      #@    +",
"+    @#       &%%%&      #@    +",
"+    @#       &%%%&  +   #@    +",
"+    @#   +   +&%&+  + ++#@    +",
"+    @#   +    &%&   +   #@    +",
"+    @#   +    &&&   +   #@    +",
"+    @#  ++    +++   +   #@    +",
"+    @#   +          +   #@    +",
"+    @#   +          +   #@    +",
"+    @#   +++   ++++++   #@    +",
"+    @#          +       #@    +",
"*    @#@   +     *       @@    *",
"*****@#@*****************@@*****",
"*****@@@*****************@@*****"};
