/* XPM */
static char * mino_l_xpm[] = {
"32 32 11 1",
" 	c #2E3C3A",
".	c #42428F",
"+	c #8294AF",
"@	c #A15C52",
"#	c #000000",
"$	c #6F5756",
"%	c #E17B50",
"&	c #812611",
"*	c #FAFA82",
"=	c #472138",
"-	c #292147",
"                                ",
"      ..          ++            ",
"      .            +            ",
"      ....@@@@++++++            ",
"       ..@@@@@+++++@@@          ",
"         @@@@@@++@@@@@@         ",
"        @@@@@@@@@@@@@@@@        ",
"       @@@@@##@@@@@@@@@@@       ",
"     $$@@@@@@@@@@@@@@@@@%%      ",
"     $$$@@@@@@@@@&@@@@%@%%%     ",
"    *@@*@@@@@@@@&@@@@@%%%%%     ",
"    * @*@@@@@@@&@@@@@@@%%%%%    ",
"     **    &&&&@@@@%@%%%%%%%%   ",
"          &@@@@@%@%%%%%%%%%%%   ",
"          &&%%@%%%%%%%%%%%%%%%  ",
"         &&&&%%%%%%%%%%&%%%%%%  ",
"       &&&&&&%%%%%%%%&&&%%%%%   ",
"      %%%%&&%%%%%%%%&%%%%%%%%   ",
"     %%%&%&&%%%%%%%&%&%%%%%%    ",
"     %%%%&=@%%&%%%%&%%%%%%%     ",
"     %%%%%=@@%%%%@@@@%%%%%      ",
"     %%%%==@@@@@@@@@@%%%%       ",
"       =====@@@@@@@@@@@@        ",
"        =====@@@@@@@@@@@@@@     ",
"          ===== @@@@@@@@@@@     ",
"          ====   @@@@@@@@@@     ",
"         ..===    @@@@@@@@@     ",
"        .....          @@@@     ",
"        ....           ++++     ",
"       -....-----------++++     ",
"    -------------------++++--   ",
"      ----------------------    "};
