/* XPM */
static char * wall_2_xpm[] = {
"32 32 3 1",
" 	c #346769",
".	c #999F8E",
"+	c #12274D",
" ............... ...............",
" ............... ...............",
" ...............................",
"................................",
"................................",
"................ ...............",
"................ ...............",
"................ ...............",
"................ ...............",
"................................",
"................................",
"................................",
" ...............................",
" ...............................",
" ............... ...............",
"+                               ",
"+                               ",
"+                               ",
"+                               ",
"+               +               ",
"+               +               ",
"+               +               ",
"+               +               ",
"+++++++++     ++++++    ++   +++",
"        +               +       ",
"        +               +       ",
"        +               +       ",
"                        +       ",
"                        +       ",
"                        +       ",
"        +               +       ",
"        +               +       "};
